<svg width="53" height="53" viewBox="0 0 53 53" fill="none" xmlns="http://www.w3.org/2000/svg">
<path d="M52.2154 25.1676C52.2136 25.1303 52.2037 25.0939 52.1863 25.0609C52.169 25.0278 52.1446 24.999 52.115 24.9764C52.0853 24.9538 52.0511 24.9379 52.0146 24.9299C51.9782 24.9219 51.9405 24.922 51.9041 24.9301C50.8862 25.1315 49.8345 25.08 48.8413 24.7799C47.7504 24.4489 46.7681 23.8317 45.9964 22.9926C45.2247 22.1534 44.6919 21.1228 44.4533 20.008C44.373 19.633 44.1664 19.297 43.8681 19.056C43.5698 18.815 43.1978 18.6837 42.8143 18.684H42.7811C41.1998 18.6848 39.6463 18.2682 38.2776 17.4762C36.9089 16.6843 35.7736 15.5451 34.9863 14.1737C34.1989 12.8023 33.7876 11.2474 33.7938 9.66617C33.8 8.08489 34.2235 6.53327 35.0215 5.16811C35.5524 4.26658 36.2347 3.46321 37.0383 2.79323C37.0709 2.76525 37.0959 2.72951 37.1111 2.68932C37.1262 2.64913 37.131 2.60576 37.125 2.56323C37.119 2.52069 37.1024 2.48036 37.0767 2.44593C37.051 2.4115 37.0171 2.3841 36.978 2.36624C36.0181 1.92429 35.0318 1.5421 34.0248 1.22187C33.9778 1.20735 33.9277 1.20622 33.8801 1.21861C33.8325 1.231 33.7892 1.25642 33.7553 1.29201C32.9815 2.12424 32.3249 3.05821 31.8037 4.06803C30.8938 5.84324 30.4279 7.81258 30.4458 9.80731C30.4637 11.802 30.965 13.7627 31.9066 15.5213C32.8483 17.2798 34.2022 18.7839 35.8525 19.9046C37.5028 21.0253 39.4001 21.7291 41.382 21.9559C41.428 21.9615 41.4716 21.9796 41.508 22.0083C41.5445 22.0369 41.5724 22.075 41.5887 22.1184C42.2837 23.9642 43.5248 25.5544 45.1466 26.6769C46.7684 27.7995 48.6938 28.401 50.6662 28.4013C51.0899 28.401 51.5132 28.3739 51.9336 28.3201C51.9922 28.312 52.0462 28.2841 52.0869 28.2412C52.1276 28.1983 52.1525 28.1428 52.1575 28.0839C52.2076 27.4342 52.233 26.7779 52.2338 26.115C52.2338 25.7976 52.2277 25.4817 52.2154 25.1676Z" fill="black"/>
<path d="M43.7372 29.7501C41.9985 38.1901 34.3312 44.4928 25.2931 44.0867C15.9105 43.6659 8.36745 35.9518 8.13366 26.5618C7.88756 16.4396 16.0507 8.12756 26.1175 8.12756C26.4707 8.12756 26.8189 8.13864 27.1672 8.15833C27.1339 8.50656 27.1106 8.85972 27.0995 9.21533C26.7713 9.194 26.4375 9.18375 26.0978 9.18457C17.3342 9.19564 9.9302 16.0077 9.23988 24.7443C8.45113 34.7004 16.3288 43.0494 26.1175 43.0494C34.437 43.0494 41.3758 37.0137 42.786 29.093C43.0924 29.3268 43.4099 29.547 43.7372 29.7501Z" fill="black"/>
<path d="M51.6137 31.7176C51.615 31.7175 51.6164 31.7178 51.6177 31.7184C51.6189 31.719 51.62 31.7198 51.6208 31.7209C51.6217 31.722 51.6222 31.7233 51.6225 31.7246C51.6227 31.726 51.6227 31.7274 51.6223 31.7287C49.0505 43.4431 38.59 52.2339 26.1175 52.2339C11.7157 52.2339 0 40.517 0 26.1151C0 11.7132 11.7157 1.0961e-05 26.1175 1.0961e-05C27.4827 -0.00124189 28.8458 0.104909 30.1942 0.317482C30.1957 0.317636 30.1971 0.31818 30.1984 0.319057C30.1996 0.319935 30.2005 0.321117 30.2012 0.322486C30.2018 0.323855 30.202 0.325362 30.2019 0.326859C30.2018 0.328356 30.2012 0.32979 30.2004 0.331018C29.4773 1.29944 28.8687 2.34824 28.3866 3.45651C28.3853 3.45727 28.3838 3.45766 28.3823 3.45766C28.3808 3.45766 28.3793 3.45727 28.378 3.45651C27.6323 3.38514 26.8792 3.34576 26.1175 3.34576C14.2739 3.35069 4.51597 12.438 3.44542 24.006C2.12632 38.3217 14.4868 50.393 28.7668 48.7281C38.2639 47.6207 45.9939 40.6425 48.2285 31.5281C48.2291 31.5259 48.2304 31.524 48.2322 31.5227C48.234 31.5213 48.2361 31.5206 48.2384 31.5207C49.0385 31.6743 49.8514 31.7518 50.6662 31.7521C50.9849 31.7533 51.2999 31.7471 51.6137 31.7176Z" fill="black"/>
</svg>
